<?xml version="1.0" encoding="UTF-8"?>
<svg xmlns="http://www.w3.org/2000/svg" xmlns:xlink="http://www.w3.org/1999/xlink" width="80px" height="73px" viewBox="0 0 80 73" version="1.1">
<g id="surface1">
<path style=" stroke:none;fill-rule:evenodd;fill:rgb(100%,1000%,1000%);fill-opacity:1;" d="M 0.121094 0 L 7.554688 0 L 7.554688 49.46875 L 36.953125 49.46875 L 36.953125 55.566406 L 0.121094 55.566406 Z M 57.226562 14.570312 C 62.292969 13.890625 67.699219 14.910156 71.753906 18.296875 C 76.148438 21.347656 78.515625 26.765625 78.851562 31.851562 C 79.527344 37.949219 78.851562 44.046875 75.472656 49.128906 C 72.429688 53.195312 67.699219 55.90625 62.292969 56.246094 C 57.226562 56.921875 51.480469 55.90625 47.089844 52.519531 C 43.035156 49.128906 41.007812 44.046875 40.332031 38.964844 C 39.65625 33.542969 40.332031 27.445312 43.710938 22.703125 C 46.414062 17.957031 51.820312 14.910156 57.226562 14.570312 Z M 58.238281 20.328125 C 61.617188 19.992188 65.335938 21.007812 68.039062 23.378906 C 70.402344 26.089844 71.753906 29.476562 72.09375 32.867188 C 72.429688 36.59375 72.09375 40.660156 70.402344 44.046875 C 68.714844 47.4375 65.671875 49.808594 61.957031 50.484375 C 58.578125 51.164062 54.859375 50.144531 52.496094 48.113281 C 49.792969 46.082031 48.101562 43.03125 47.425781 39.980469 C 46.75 35.578125 47.089844 31.171875 48.777344 27.105469 C 50.46875 23.378906 54.183594 20.667969 58.238281 20.328125 Z M 58.238281 20.328125 "/>
<path style=" stroke:none;fill-rule:evenodd;fill:rgb(20.392157%,57.254902%,100%);fill-opacity:1;" d="M 0.121094 64.375 L 79.863281 64.375 L 79.863281 72.847656 L 0.121094 72.847656 Z M 0.121094 64.375 "/>
</g>
</svg>
