<?xml version="1.0" encoding="UTF-8"?>
<svg xmlns="http://www.w3.org/2000/svg" xmlns:xlink="http://www.w3.org/1999/xlink" width="80px" height="44px" viewBox="0 0 80 44" version="1.1">
<g id="surface1">
<path style=" stroke:none;fill-rule:nonzero;fill:rgb(38.431373%,85.490196%,98.431373%);fill-opacity:1;" d="M 59.472656 28.667969 C 57.964844 29.164062 56.34375 29.3125 54.769531 29.59375 C 54.339844 29.667969 53.886719 29.601562 53.457031 29.660156 C 50.09375 30.128906 48.824219 31.484375 48.351562 35.082031 C 48.097656 36.996094 47.597656 38.816406 46.503906 40.449219 C 44.65625 43.199219 41.070312 44.449219 38 43.375 C 34.710938 42.222656 32.71875 39.210938 32.984375 35.789062 C 33.226562 32.707031 35.644531 29.984375 39.046875 29.191406 C 40.636719 28.820312 42.289062 28.675781 43.921875 28.527344 C 46.96875 28.25 48.316406 26.90625 48.824219 23.890625 C 49.117188 22.15625 48.855469 20.519531 48.472656 18.882812 C 47.890625 16.382812 46.078125 15.21875 43.039062 14.996094 C 41.378906 14.875 39.691406 14.632812 38.105469 14.152344 C 34.765625 13.144531 32.820312 10.226562 32.972656 6.804688 C 33.109375 3.808594 35.535156 0.890625 38.449219 0.21875 C 41.902344 -0.574219 45.339844 0.8125 46.808594 3.90625 C 47.578125 5.53125 48.003906 7.367188 48.304688 9.15625 C 48.84375 12.363281 50.113281 13.609375 53.292969 13.957031 C 55.347656 14.179688 57.445312 14.4375 59.40625 15.054688 C 62.386719 15.992188 64.175781 18.785156 64.175781 21.886719 C 64.175781 24.921875 62.328125 27.730469 59.472656 28.667969 Z M 59.472656 28.667969 "/>
<path style=" stroke:none;fill-rule:nonzero;fill:rgb(25.882353%,25.882353%,25.882353%);fill-opacity:1;" d="M 24.398438 29.160156 C 20.40625 29.160156 17.144531 25.882812 17.144531 21.867188 C 17.144531 17.851562 20.402344 14.574219 24.394531 14.574219 C 28.386719 14.570312 31.648438 17.847656 31.648438 21.863281 C 31.648438 25.878906 28.390625 29.160156 24.398438 29.160156 Z M 24.398438 29.160156 "/>
<path style=" stroke:none;fill-rule:nonzero;fill:rgb(25.882353%,25.882353%,25.882353%);fill-opacity:1;" d="M 7.226562 43.75 C 3.238281 43.738281 -0.0117188 40.449219 0 36.429688 C 0.0117188 32.417969 3.28125 29.152344 7.277344 29.160156 C 11.265625 29.171875 14.515625 32.460938 14.503906 36.480469 C 14.496094 40.492188 11.222656 43.757812 7.226562 43.75 Z M 7.226562 43.75 "/>
<path style=" stroke:none;fill-rule:nonzero;fill:rgb(25.882353%,25.882353%,25.882353%);fill-opacity:1;" d="M 72.800781 43.75 C 68.800781 43.773438 65.515625 40.519531 65.492188 36.507812 C 65.472656 32.488281 68.707031 29.183594 72.691406 29.160156 C 76.691406 29.136719 79.976562 32.390625 80 36.398438 C 80.019531 40.421875 76.785156 43.726562 72.800781 43.75 Z M 72.800781 43.75 "/>
</g>
</svg>
