<?xml version="1.0" encoding="UTF-8"?>
<svg xmlns="http://www.w3.org/2000/svg" xmlns:xlink="http://www.w3.org/1999/xlink" width="80px" height="80px" viewBox="0 0 80 79" version="1.1">
<g id="surface1">
<path style="fill-rule:evenodd;fill:rgb(92.54902%,34.901961%,56.470588%);fill-opacity:1;stroke-width:17;stroke-linecap:butt;stroke-linejoin:miter;stroke:rgb(100%,100%,100%);stroke-opacity:1;stroke-miterlimit:4;" d="M 157.999023 8.499901 C 168.079639 8.499901 177.198779 12.585047 183.810156 19.187203 C 190.411621 25.799347 194.49541 34.928501 194.49541 45.006527 L 194.49541 156.993473 C 194.49541 167.081487 190.411621 176.200653 183.810156 182.812797 C 176.970801 189.664656 167.683154 193.510087 157.999023 193.500099 L 45.000977 193.500099 C 34.920361 193.500099 25.801221 189.414953 19.189844 182.812797 C 12.588379 176.200653 8.50459 167.071499 8.50459 156.993473 L 8.50459 45.006527 C 8.50459 34.918513 12.588379 25.799347 19.189844 19.187203 C 26.029199 12.335344 35.316846 8.489913 45.000977 8.499901 Z M 157.999023 8.499901 " transform="matrix(0.394089,0,0,0.391089,0,0)"/>
<path style=" stroke:none;fill-rule:evenodd;fill:rgb(100%,100%,100%);fill-opacity:1;" d="M 52.566406 20.183594 L 44.339844 20.183594 C 43.738281 18.316406 41.984375 17.050781 40.003906 17.050781 C 38.023438 17.050781 36.269531 18.316406 35.664062 20.183594 L 27.433594 20.183594 C 24.195312 20.183594 21.566406 22.777344 21.566406 25.976562 L 21.566406 56.15625 C 21.566406 59.359375 24.195312 61.953125 27.433594 61.953125 L 52.566406 61.953125 C 55.804688 61.953125 58.433594 59.359375 58.433594 56.15625 L 58.433594 25.976562 C 58.433594 22.777344 55.804688 20.183594 52.566406 20.183594 Z M 36.074219 21.234375 C 36.332031 21.242188 36.554688 21.066406 36.609375 20.820312 C 36.957031 19.238281 38.375 18.109375 40.015625 18.109375 C 41.65625 18.109375 43.074219 19.234375 43.425781 20.820312 C 43.476562 21.066406 43.703125 21.242188 43.957031 21.234375 L 46.828125 21.234375 L 46.828125 24.683594 C 46.828125 25.558594 46.109375 26.265625 45.226562 26.265625 L 34.800781 26.265625 C 33.917969 26.265625 33.199219 25.558594 33.199219 24.683594 L 33.199219 21.234375 Z M 57.367188 56.15625 C 57.367188 58.777344 55.214844 60.898438 52.566406 60.898438 L 27.433594 60.898438 C 24.785156 60.898438 22.636719 58.777344 22.636719 56.15625 L 22.636719 25.976562 C 22.636719 23.355469 24.785156 21.234375 27.433594 21.234375 L 32.132812 21.234375 L 32.132812 24.683594 C 32.132812 26.140625 33.328125 27.316406 34.800781 27.316406 L 45.199219 27.316406 C 46.671875 27.316406 47.867188 26.140625 47.867188 24.683594 L 47.867188 21.234375 L 52.566406 21.234375 C 55.21875 21.234375 57.367188 23.355469 57.367188 25.976562 Z M 51.519531 37.394531 L 42.132812 37.394531 C 41.839844 37.390625 41.601562 37.628906 41.601562 37.921875 C 41.601562 38.210938 41.839844 38.449219 42.132812 38.445312 L 51.519531 38.445312 C 51.8125 38.449219 52.050781 38.210938 52.054688 37.921875 C 52.050781 37.628906 51.8125 37.390625 51.519531 37.394531 Z M 37.652344 37.394531 L 28.265625 37.394531 C 27.972656 37.390625 27.734375 37.628906 27.734375 37.921875 C 27.734375 38.210938 27.972656 38.449219 28.265625 38.445312 L 37.652344 38.445312 C 37.949219 38.449219 38.1875 38.210938 38.1875 37.921875 C 38.1875 37.628906 37.949219 37.390625 37.652344 37.394531 Z M 51.546875 50.136719 L 42.132812 50.136719 C 41.839844 50.136719 41.601562 50.375 41.601562 50.664062 C 41.601562 50.957031 41.839844 51.191406 42.132812 51.191406 L 51.546875 51.191406 C 51.839844 51.191406 52.078125 50.957031 52.078125 50.664062 C 52.078125 50.375 51.839844 50.136719 51.546875 50.136719 Z M 37.679688 50.136719 L 28.265625 50.136719 C 27.972656 50.136719 27.734375 50.375 27.734375 50.664062 C 27.734375 50.957031 27.972656 51.191406 28.265625 51.191406 L 37.679688 51.191406 C 37.972656 51.191406 38.210938 50.957031 38.214844 50.664062 C 38.210938 50.375 37.972656 50.136719 37.679688 50.136719 Z M 37.679688 50.136719 "/>
</g>
</svg>
