<?xml version="1.0" encoding="UTF-8"?>
<svg xmlns="http://www.w3.org/2000/svg" xmlns:xlink="http://www.w3.org/1999/xlink" width="60px" height="60px" viewBox="0 0 60 59" version="1.1">
<g id="surface1">
<path style=" stroke:none;fill-rule:nonzero;fill:rgb(0%,0%,0%);fill-opacity:1;" d="M 46.734375 59.296875 C 36.175781 59.296875 25.617188 59.296875 14.820312 59.207031 C 15.605469 58.683594 16.628906 58.242188 17.652344 57.808594 C 21.394531 56.226562 24.621094 54.046875 26.667969 50.324219 C 27.273438 49.210938 27.78125 48.144531 28.316406 46.960938 C 28.554688 45.835938 28.765625 44.824219 29.085938 43.746094 C 29.191406 42.722656 29.195312 41.773438 29.21875 40.695312 C 29.226562 39.953125 29.210938 39.34375 29.222656 38.597656 C 29.128906 37.367188 29.011719 36.269531 28.914062 35.058594 C 28.746094 34.417969 28.5625 33.890625 28.363281 33.253906 C 28.15625 32.71875 27.964844 32.289062 27.757812 31.75 C 27.453125 31.023438 27.160156 30.402344 26.855469 29.679688 C 26.449219 29.050781 26.058594 28.523438 25.648438 27.894531 C 25.140625 27.164062 24.648438 26.535156 24.117188 25.820312 C 23.5 25.191406 22.921875 24.65625 22.304688 24.03125 C 21.683594 23.398438 21.105469 22.859375 20.484375 22.226562 C 19.871094 21.703125 19.300781 21.273438 18.6875 20.753906 C 18.042969 20.03125 17.441406 19.398438 16.832031 18.667969 C 16.253906 17.9375 15.683594 17.304688 15.09375 16.566406 C 14.960938 16.136719 14.839844 15.8125 14.742188 15.367188 C 13.019531 9.550781 15.054688 5.664062 20.375 1.304688 C 18.675781 0.796875 12.945312 2.957031 9.390625 6.1875 C 5.332031 9.878906 3.523438 14.722656 3.949219 20.390625 C 3.941406 21.128906 3.953125 21.738281 3.945312 22.476562 C 4.039062 23.503906 4.152344 24.40625 4.25 25.425781 C 4.445312 26.265625 4.65625 26.988281 4.882812 27.816406 C 5.289062 28.746094 5.683594 29.570312 6.085938 30.492188 C 6.464844 31.136719 6.839844 31.675781 7.257812 32.308594 C 7.871094 33.132812 8.445312 33.863281 9.058594 34.683594 C 9.578125 35.214844 10.058594 35.652344 10.578125 36.179688 C 11.296875 36.878906 11.980469 37.488281 12.753906 38.136719 C 13.285156 38.574219 13.722656 38.972656 14.195312 39.457031 C 14.609375 39.882812 14.984375 40.21875 15.394531 40.640625 C 15.699219 40.964844 15.972656 41.203125 16.257812 41.546875 C 16.867188 42.480469 17.460938 43.308594 18.070312 44.246094 C 18.300781 44.964844 18.523438 45.574219 18.722656 46.300781 C 18.816406 47.035156 18.929688 47.652344 19.023438 48.398438 C 18.914062 49.335938 18.828125 50.148438 18.714844 51.074219 C 18.277344 52.1875 17.867188 53.195312 17.363281 54.246094 C 16.625 55.027344 15.996094 55.773438 15.332031 56.492188 C 14.457031 57.441406 13.554688 58.363281 12.664062 59.296875 C 8.546875 59.296875 4.425781 59.296875 0.308594 59.296875 C 0.304688 39.648438 0.304688 19.996094 0.304688 0.320312 C 20.273438 0.320312 40.246094 0.320312 60.257812 0.320312 C 60.257812 19.964844 60.257812 39.632812 60.257812 59.296875 C 56.359375 59.296875 52.441406 59.296875 48.382812 59.191406 C 48.082031 58.847656 47.949219 58.589844 47.761719 58.378906 C 46.328125 56.78125 44.882812 55.191406 43.429688 53.488281 C 43.097656 52.269531 42.777344 51.164062 42.4375 49.945312 C 42.433594 48.914062 42.445312 47.996094 42.484375 46.964844 C 42.695312 46.136719 42.882812 45.421875 43.117188 44.613281 C 43.484375 43.972656 43.808594 43.421875 44.199219 42.839844 C 44.265625 42.800781 44.257812 42.652344 44.289062 42.609375 C 44.335938 42.492188 44.34375 42.417969 44.433594 42.308594 C 44.761719 41.996094 45.003906 41.726562 45.339844 41.410156 C 46.054688 40.730469 46.675781 40.09375 47.296875 39.453125 C 47.296875 39.449219 47.304688 39.445312 47.367188 39.410156 C 47.484375 39.261719 47.539062 39.148438 47.625 38.953125 C 47.753906 38.8125 47.847656 38.75 48.042969 38.683594 C 48.992188 37.808594 49.839844 36.9375 50.777344 36.03125 C 51.414062 35.421875 51.957031 34.851562 52.589844 34.242188 C 52.917969 33.828125 53.160156 33.460938 53.492188 33.050781 C 53.796875 32.636719 54.007812 32.261719 54.265625 31.789062 C 54.609375 31.167969 54.910156 30.636719 55.304688 30.0625 C 55.640625 29.347656 55.878906 28.6875 56.214844 27.96875 C 56.519531 27.054688 56.726562 26.1875 56.960938 25.207031 C 57.070312 24.371094 57.152344 23.65625 57.292969 22.832031 C 57.414062 21.902344 57.476562 21.082031 57.558594 20.132812 C 57.296875 14.371094 55.601562 9.335938 51.046875 5.636719 C 48.164062 3.292969 44.78125 1.925781 41.109375 1.226562 C 41.410156 1.703125 41.78125 2.058594 42.183594 2.378906 C 44.363281 4.121094 46.207031 6.1875 46.667969 8.960938 C 46.992188 10.882812 46.714844 12.902344 46.605469 14.925781 C 46.378906 15.433594 46.246094 15.894531 46.015625 16.398438 C 45.382812 17.207031 44.84375 17.972656 44.214844 18.777344 C 43.480469 19.488281 42.835938 20.15625 42.105469 20.863281 C 41.574219 21.371094 41.132812 21.84375 40.605469 22.347656 C 40.375 22.554688 40.226562 22.734375 39.984375 22.921875 C 39.757812 23.027344 39.621094 23.117188 39.472656 23.210938 C 39.464844 23.210938 39.460938 23.226562 39.367188 23.265625 C 38.734375 23.972656 38.191406 24.644531 37.570312 25.34375 C 37.351562 25.546875 37.210938 25.71875 36.976562 25.933594 C 36.363281 26.652344 35.84375 27.332031 35.277344 28.105469 C 34.761719 29.03125 34.292969 29.859375 33.773438 30.789062 C 33.527344 31.414062 33.332031 31.941406 33.03125 32.523438 C 32.824219 33.242188 32.714844 33.90625 32.554688 34.675781 C 32.410156 35.402344 32.320312 36.019531 32.121094 36.707031 C 32.015625 37.628906 32.011719 38.480469 31.988281 39.464844 C 31.980469 40.503906 31.996094 41.40625 31.992188 42.429688 C 32.183594 43.371094 32.394531 44.191406 32.585938 45.132812 C 33.15625 46.765625 33.75 48.28125 34.355469 49.90625 C 35.015625 50.914062 35.597656 51.878906 36.328125 52.714844 C 38.851562 55.609375 42.128906 57.335938 45.746094 58.53125 C 46.121094 58.652344 46.40625 59.035156 46.734375 59.296875 Z M 46.734375 59.296875 "/>
<path style=" stroke:none;fill-rule:nonzero;fill:rgb(23.529412%,22.352941%,100%);fill-opacity:1;" d="M 43.445312 53.597656 C 44.882812 55.191406 46.328125 56.78125 47.761719 58.378906 C 47.949219 58.589844 48.082031 58.847656 48.242188 59.191406 C 47.824219 59.296875 47.402344 59.296875 46.859375 59.296875 C 46.40625 59.035156 46.121094 58.652344 45.746094 58.53125 C 42.128906 57.335938 38.851562 55.609375 36.328125 52.714844 C 35.597656 51.878906 35.015625 50.914062 34.46875 49.898438 C 36.484375 50.6875 38.375 51.613281 40.304688 52.464844 C 41.320312 52.910156 42.394531 53.222656 43.445312 53.597656 Z M 43.445312 53.597656 "/>
<path style=" stroke:none;fill-rule:nonzero;fill:rgb(23.529412%,22.352941%,100%);fill-opacity:1;" d="M 12.796875 59.296875 C 13.554688 58.363281 14.457031 57.441406 15.332031 56.492188 C 15.996094 55.773438 16.625 55.027344 17.441406 54.3125 C 18.164062 54.207031 18.757812 54.171875 19.253906 53.933594 C 21.707031 52.773438 24.136719 51.5625 26.570312 50.367188 C 24.621094 54.046875 21.394531 56.226562 17.652344 57.808594 C 16.628906 58.242188 15.605469 58.683594 14.679688 59.207031 C 14.160156 59.296875 13.542969 59.296875 12.796875 59.296875 Z M 12.796875 59.296875 "/>
<path style=" stroke:none;fill-rule:nonzero;fill:rgb(85.882353%,1.568627%,100%);fill-opacity:1;" d="M 3.96875 20.261719 C 3.523438 14.722656 5.332031 9.878906 9.390625 6.1875 C 12.945312 2.957031 18.675781 0.796875 20.375 1.304688 C 15.054688 5.664062 13.019531 9.550781 14.652344 15.320312 C 14.210938 15.402344 13.820312 15.296875 13.554688 15.433594 C 12.132812 16.152344 10.757812 16.964844 9.335938 17.683594 C 7.5625 18.574219 5.757812 19.40625 3.96875 20.261719 Z M 3.96875 20.261719 "/>
<path style=" stroke:none;fill-rule:nonzero;fill:rgb(85.882353%,1.568627%,100%);fill-opacity:1;" d="M 46.703125 14.878906 C 46.714844 12.902344 46.992188 10.882812 46.667969 8.960938 C 46.207031 6.1875 44.363281 4.121094 42.183594 2.378906 C 41.78125 2.058594 41.410156 1.703125 41.109375 1.226562 C 44.78125 1.925781 48.164062 3.292969 51.046875 5.636719 C 55.601562 9.335938 57.296875 14.371094 57.449219 20.125 C 56.808594 20.058594 56.277344 19.914062 55.796875 19.664062 C 52.757812 18.082031 49.734375 16.476562 46.703125 14.878906 Z M 46.703125 14.878906 "/>
<path style=" stroke:none;fill-rule:nonzero;fill:rgb(54.901961%,10.588235%,100%);fill-opacity:1;" d="M 50.6875 36.070312 C 49.839844 36.9375 48.992188 37.808594 48.035156 38.574219 C 47.496094 38.046875 47.128906 37.503906 46.613281 37.214844 C 44.261719 35.894531 41.882812 34.613281 39.476562 33.386719 C 37.617188 32.4375 35.707031 31.585938 33.820312 30.691406 C 34.292969 29.859375 34.761719 29.03125 35.386719 28.109375 C 40.589844 30.703125 45.636719 33.386719 50.6875 36.070312 Z M 50.6875 36.070312 "/>
<path style=" stroke:none;fill-rule:nonzero;fill:rgb(74.117647%,4.313725%,100%);fill-opacity:1;" d="M 4.871094 27.710938 C 4.65625 26.988281 4.445312 26.265625 4.332031 25.375 C 7.808594 23.398438 11.171875 21.578125 14.550781 19.785156 C 15.285156 19.398438 16.074219 19.105469 16.835938 18.765625 C 17.441406 19.398438 18.042969 20.03125 18.589844 20.796875 C 14.640625 23.007812 10.753906 25.097656 6.84375 27.140625 C 6.25 27.449219 5.53125 27.527344 4.871094 27.710938 Z M 4.871094 27.710938 "/>
<path style=" stroke:none;fill-rule:nonzero;fill:rgb(69.411765%,5.490196%,100%);fill-opacity:1;" d="M 4.882812 27.816406 C 5.53125 27.527344 6.25 27.449219 6.84375 27.140625 C 10.753906 25.097656 14.640625 23.007812 18.632812 20.890625 C 19.300781 21.273438 19.871094 21.703125 20.460938 22.328125 C 19.363281 23.238281 18.289062 24.027344 17.125 24.648438 C 13.460938 26.597656 9.765625 28.480469 6.078125 30.390625 C 5.683594 29.570312 5.289062 28.746094 4.882812 27.816406 Z M 4.882812 27.816406 "/>
<path style=" stroke:none;fill-rule:nonzero;fill:rgb(74.117647%,4.313725%,100%);fill-opacity:1;" d="M 56.9375 25.324219 C 56.726562 26.1875 56.519531 27.054688 56.097656 27.960938 C 55.554688 27.910156 55.195312 27.859375 54.898438 27.699219 C 50.660156 25.417969 46.429688 23.121094 42.195312 20.824219 C 42.835938 20.15625 43.480469 19.488281 44.28125 18.855469 C 47.078125 20.328125 49.699219 21.789062 52.355469 23.175781 C 53.847656 23.953125 55.40625 24.613281 56.9375 25.324219 Z M 56.9375 25.324219 "/>
<path style=" stroke:none;fill-rule:nonzero;fill:rgb(62.745098%,7.843137%,100%);fill-opacity:1;" d="M 9.019531 34.59375 C 8.445312 33.863281 7.871094 33.132812 7.332031 32.234375 C 12.363281 29.421875 17.351562 26.769531 22.34375 24.121094 C 22.921875 24.65625 23.5 25.191406 24.019531 25.863281 C 20.257812 27.980469 16.53125 29.917969 12.863281 31.960938 C 11.507812 32.714844 10.296875 33.710938 9.019531 34.59375 Z M 9.019531 34.59375 "/>
<path style=" stroke:none;fill-rule:nonzero;fill:rgb(58.823529%,9.411765%,100%);fill-opacity:1;" d="M 9.058594 34.683594 C 10.296875 33.710938 11.507812 32.714844 12.863281 31.960938 C 16.53125 29.917969 20.257812 27.980469 24.058594 25.953125 C 24.648438 26.535156 25.140625 27.164062 25.539062 27.914062 C 22.460938 29.601562 19.464844 31.148438 16.492188 32.746094 C 14.488281 33.824219 12.523438 34.972656 10.539062 36.089844 C 10.058594 35.652344 9.578125 35.214844 9.058594 34.683594 Z M 9.058594 34.683594 "/>
<path style=" stroke:none;fill-rule:nonzero;fill:rgb(69.411765%,5.490196%,100%);fill-opacity:1;" d="M 42.105469 20.863281 C 46.429688 23.121094 50.660156 25.417969 54.898438 27.699219 C 55.195312 27.859375 55.554688 27.910156 56 28.015625 C 55.878906 28.6875 55.640625 29.347656 55.1875 30.054688 C 54.492188 29.976562 53.964844 29.9375 53.539062 29.714844 C 49.507812 27.601562 45.488281 25.46875 41.488281 23.300781 C 41.144531 23.113281 40.953125 22.652344 40.691406 22.316406 C 41.132812 21.84375 41.574219 21.371094 42.105469 20.863281 Z M 42.105469 20.863281 "/>
<path style=" stroke:none;fill-rule:nonzero;fill:rgb(54.901961%,10.588235%,100%);fill-opacity:1;" d="M 10.578125 36.179688 C 12.523438 34.972656 14.488281 33.824219 16.492188 32.746094 C 19.464844 31.148438 22.460938 29.601562 25.554688 28.015625 C 26.058594 28.523438 26.449219 29.050781 26.757812 29.726562 C 22.328125 32.171875 17.972656 34.453125 13.652344 36.792969 C 13.214844 37.03125 12.988281 37.652344 12.664062 38.09375 C 11.980469 37.488281 11.296875 36.878906 10.578125 36.179688 Z M 10.578125 36.179688 "/>
<path style=" stroke:none;fill-rule:nonzero;fill:rgb(58.823529%,9.411765%,100%);fill-opacity:1;" d="M 50.777344 36.03125 C 45.636719 33.386719 40.589844 30.703125 35.433594 28.015625 C 35.84375 27.332031 36.363281 26.652344 37.03125 26.019531 C 37.65625 26.417969 38.097656 26.828125 38.617188 27.105469 C 41.636719 28.726562 44.664062 30.328125 47.707031 31.910156 C 49.289062 32.730469 50.902344 33.496094 52.5 34.285156 C 51.957031 34.851562 51.414062 35.421875 50.777344 36.03125 Z M 50.777344 36.03125 "/>
<path style=" stroke:none;fill-rule:nonzero;fill:rgb(66.27451%,6.666667%,100%);fill-opacity:1;" d="M 22.304688 24.03125 C 17.351562 26.769531 12.363281 29.421875 7.292969 32.140625 C 6.839844 31.675781 6.464844 31.136719 6.085938 30.492188 C 9.765625 28.480469 13.460938 26.597656 17.125 24.648438 C 18.289062 24.027344 19.363281 23.238281 20.5 22.421875 C 21.105469 22.859375 21.683594 23.398438 22.304688 24.03125 Z M 22.304688 24.03125 "/>
<path style=" stroke:none;fill-rule:nonzero;fill:rgb(78.431373%,3.137255%,100%);fill-opacity:1;" d="M 56.960938 25.207031 C 55.40625 24.613281 53.847656 23.953125 52.355469 23.175781 C 49.699219 21.789062 47.078125 20.328125 44.375 18.820312 C 44.84375 17.972656 45.382812 17.207031 46.039062 16.503906 C 46.4375 16.894531 46.652344 17.339844 47.007812 17.53125 C 50.402344 19.359375 53.824219 21.144531 57.238281 22.941406 C 57.152344 23.65625 57.070312 24.371094 56.960938 25.207031 Z M 56.960938 25.207031 "/>
<path style=" stroke:none;fill-rule:nonzero;fill:rgb(51.372549%,11.372549%,100%);fill-opacity:1;" d="M 12.753906 38.136719 C 12.988281 37.652344 13.214844 37.03125 13.652344 36.792969 C 17.972656 34.453125 22.328125 32.171875 26.773438 29.828125 C 27.160156 30.402344 27.453125 31.023438 27.644531 31.761719 C 27.304688 31.941406 27.035156 31.953125 26.824219 32.0625 C 22.816406 34.179688 18.808594 36.300781 14.820312 38.457031 C 14.519531 38.617188 14.375 39.058594 14.160156 39.371094 C 13.722656 38.972656 13.285156 38.574219 12.753906 38.136719 Z M 12.753906 38.136719 "/>
<path style=" stroke:none;fill-rule:nonzero;fill:rgb(78.431373%,3.137255%,100%);fill-opacity:1;" d="M 16.832031 18.667969 C 16.074219 19.105469 15.285156 19.398438 14.550781 19.785156 C 11.171875 21.578125 7.808594 23.398438 4.351562 25.257812 C 4.152344 24.40625 4.039062 23.503906 4.058594 22.46875 C 7.828125 20.449219 11.46875 18.5625 15.109375 16.675781 C 15.683594 17.304688 16.253906 17.9375 16.832031 18.667969 Z M 16.832031 18.667969 "/>
<path style=" stroke:none;fill-rule:nonzero;fill:rgb(27.058824%,20%,100%);fill-opacity:1;" d="M 43.429688 53.488281 C 42.394531 53.222656 41.320312 52.910156 40.304688 52.464844 C 38.375 51.613281 36.484375 50.6875 34.460938 49.792969 C 33.75 48.28125 33.15625 46.765625 32.65625 45.199219 C 34.617188 46.199219 36.457031 47.304688 38.363281 48.285156 C 39.683594 48.964844 41.09375 49.472656 42.460938 50.058594 C 42.777344 51.164062 43.097656 52.269531 43.429688 53.488281 Z M 43.429688 53.488281 "/>
<path style=" stroke:none;fill-rule:nonzero;fill:rgb(45.098039%,13.72549%,100%);fill-opacity:1;" d="M 45.246094 41.453125 C 45.003906 41.726562 44.761719 41.996094 44.390625 42.347656 C 44.21875 42.5 44.21875 42.578125 44.257812 42.652344 C 44.257812 42.652344 44.265625 42.800781 44.101562 42.769531 C 42.554688 41.960938 41.195312 41.148438 39.789062 40.421875 C 37.285156 39.132812 34.75 37.898438 32.226562 36.640625 C 32.320312 36.019531 32.410156 35.402344 32.667969 34.675781 C 33.175781 34.636719 33.550781 34.628906 33.84375 34.78125 C 37.234375 36.539062 40.621094 38.296875 43.972656 40.121094 C 44.488281 40.402344 44.828125 41 45.246094 41.453125 Z M 45.246094 41.453125 "/>
<path style=" stroke:none;fill-rule:nonzero;fill:rgb(35.686275%,16.470588%,100%);fill-opacity:1;" d="M 32.011719 42.3125 C 31.996094 41.40625 31.980469 40.503906 32.101562 39.464844 C 32.695312 39.5 33.183594 39.621094 33.613281 39.839844 C 36.773438 41.449219 39.921875 43.082031 43.074219 44.707031 C 42.882812 45.421875 42.695312 46.136719 42.375 46.960938 C 40.941406 46.453125 39.644531 45.828125 38.339844 45.222656 C 36.230469 44.246094 34.121094 43.28125 32.011719 42.3125 Z M 32.011719 42.3125 "/>
<path style=" stroke:none;fill-rule:nonzero;fill:rgb(41.568627%,15.294118%,100%);fill-opacity:1;" d="M 18.058594 44.136719 C 17.460938 43.308594 16.867188 42.480469 16.355469 41.582031 C 16.863281 41.464844 17.339844 41.53125 17.691406 41.351562 C 19.691406 40.34375 21.671875 39.304688 23.632812 38.21875 C 25.40625 37.238281 27.144531 36.1875 28.898438 35.167969 C 29.011719 36.269531 29.128906 37.367188 29.152344 38.535156 C 28.527344 38.613281 27.902344 38.449219 27.46875 38.664062 C 25.339844 39.71875 23.238281 40.835938 21.171875 42.011719 C 20.085938 42.632812 19.09375 43.421875 18.058594 44.136719 Z M 18.058594 44.136719 "/>
<path style=" stroke:none;fill-rule:nonzero;fill:rgb(66.27451%,6.666667%,100%);fill-opacity:1;" d="M 40.605469 22.347656 C 40.953125 22.652344 41.144531 23.113281 41.488281 23.300781 C 45.488281 25.46875 49.507812 27.601562 53.539062 29.714844 C 53.964844 29.9375 54.492188 29.976562 55.089844 30.105469 C 54.910156 30.636719 54.609375 31.167969 54.15625 31.78125 C 53.761719 31.808594 53.5 31.789062 53.285156 31.675781 C 49.011719 29.421875 44.730469 27.183594 40.5 24.851562 C 40.003906 24.578125 39.800781 23.78125 39.460938 23.226562 C 39.460938 23.226562 39.464844 23.210938 39.558594 23.203125 C 39.796875 23.097656 39.9375 23.003906 40.078125 22.910156 C 40.226562 22.734375 40.375 22.554688 40.605469 22.347656 Z M 40.605469 22.347656 "/>
<path style=" stroke:none;fill-rule:nonzero;fill:rgb(31.372549%,18.039216%,100%);fill-opacity:1;" d="M 31.992188 42.429688 C 34.121094 43.28125 36.230469 44.246094 38.339844 45.222656 C 39.644531 45.828125 40.941406 46.453125 42.351562 47.074219 C 42.445312 47.996094 42.433594 48.914062 42.4375 49.945312 C 41.09375 49.472656 39.683594 48.964844 38.363281 48.285156 C 36.457031 47.304688 34.617188 46.199219 32.679688 45.082031 C 32.394531 44.191406 32.183594 43.371094 31.992188 42.429688 Z M 31.992188 42.429688 "/>
<path style=" stroke:none;fill-rule:nonzero;fill:rgb(41.568627%,15.294118%,100%);fill-opacity:1;" d="M 43.117188 44.613281 C 39.921875 43.082031 36.773438 41.449219 33.613281 39.839844 C 33.183594 39.621094 32.695312 39.5 32.125 39.332031 C 32.011719 38.480469 32.015625 37.628906 32.121094 36.707031 C 34.75 37.898438 37.285156 39.132812 39.789062 40.421875 C 41.195312 41.148438 42.554688 41.960938 44.035156 42.804688 C 43.808594 43.421875 43.484375 43.972656 43.117188 44.613281 Z M 43.117188 44.613281 "/>
<path style=" stroke:none;fill-rule:nonzero;fill:rgb(47.45098%,13.72549%,100%);fill-opacity:1;" d="M 45.339844 41.410156 C 44.828125 41 44.488281 40.402344 43.972656 40.121094 C 40.621094 38.296875 37.234375 36.539062 33.84375 34.78125 C 33.550781 34.628906 33.175781 34.636719 32.722656 34.570312 C 32.714844 33.90625 32.824219 33.242188 33.144531 32.53125 C 34.964844 33.285156 36.570312 34.085938 38.175781 34.886719 C 41.214844 36.410156 44.253906 37.933594 47.292969 39.457031 C 46.675781 40.09375 46.054688 40.730469 45.339844 41.410156 Z M 45.339844 41.410156 "/>
<path style=" stroke:none;fill-rule:nonzero;fill:rgb(45.098039%,13.72549%,100%);fill-opacity:1;" d="M 28.914062 35.058594 C 27.144531 36.1875 25.40625 37.238281 23.632812 38.21875 C 21.671875 39.304688 19.691406 40.34375 17.691406 41.351562 C 17.339844 41.53125 16.863281 41.464844 16.34375 41.476562 C 15.972656 41.203125 15.699219 40.964844 15.449219 40.554688 C 19.773438 38.039062 24.074219 35.699219 28.375 33.359375 C 28.5625 33.890625 28.746094 34.417969 28.914062 35.058594 Z M 28.914062 35.058594 "/>
<path style=" stroke:none;fill-rule:nonzero;fill:rgb(51.372549%,11.372549%,100%);fill-opacity:1;" d="M 47.296875 39.453125 C 44.253906 37.933594 41.214844 36.410156 38.175781 34.886719 C 36.570312 34.085938 34.964844 33.285156 33.246094 32.472656 C 33.332031 31.941406 33.527344 31.414062 33.773438 30.789062 C 35.707031 31.585938 37.617188 32.4375 39.476562 33.386719 C 41.882812 34.613281 44.261719 35.894531 46.613281 37.214844 C 47.128906 37.503906 47.496094 38.046875 47.933594 38.582031 C 47.847656 38.75 47.753906 38.8125 47.550781 38.976562 C 47.398438 39.203125 47.351562 39.324219 47.304688 39.445312 C 47.304688 39.445312 47.296875 39.449219 47.296875 39.453125 Z M 47.296875 39.453125 "/>
<path style=" stroke:none;fill-rule:nonzero;fill:rgb(35.686275%,16.470588%,100%);fill-opacity:1;" d="M 18.070312 44.246094 C 19.09375 43.421875 20.085938 42.632812 21.171875 42.011719 C 23.238281 40.835938 25.339844 39.71875 27.46875 38.664062 C 27.902344 38.449219 28.527344 38.613281 29.132812 38.667969 C 29.210938 39.34375 29.226562 39.953125 29.105469 40.699219 C 25.566406 42.617188 22.152344 44.398438 18.742188 46.179688 C 18.523438 45.574219 18.300781 44.964844 18.070312 44.246094 Z M 18.070312 44.246094 "/>
<path style=" stroke:none;fill-rule:nonzero;fill:rgb(33.72549%,17.254902%,100%);fill-opacity:1;" d="M 18.722656 46.300781 C 22.152344 44.398438 25.566406 42.617188 29.085938 40.828125 C 29.195312 41.773438 29.191406 42.722656 28.964844 43.742188 C 27.042969 44.609375 25.351562 45.414062 23.648438 46.195312 C 22.121094 46.898438 20.582031 47.582031 19.046875 48.273438 C 18.929688 47.652344 18.816406 47.035156 18.722656 46.300781 Z M 18.722656 46.300781 "/>
<path style=" stroke:none;fill-rule:nonzero;fill:rgb(82.352941%,1.568627%,100%);fill-opacity:1;" d="M 57.292969 22.832031 C 53.824219 21.144531 50.402344 19.359375 47.007812 17.53125 C 46.652344 17.339844 46.4375 16.894531 46.136719 16.460938 C 46.246094 15.894531 46.378906 15.433594 46.605469 14.925781 C 49.734375 16.476562 52.757812 18.082031 55.796875 19.664062 C 56.277344 19.914062 56.808594 20.058594 57.425781 20.257812 C 57.476562 21.082031 57.414062 21.902344 57.292969 22.832031 Z M 57.292969 22.832031 "/>
<path style=" stroke:none;fill-rule:nonzero;fill:rgb(47.45098%,13.72549%,100%);fill-opacity:1;" d="M 28.363281 33.253906 C 24.074219 35.699219 19.773438 38.039062 15.417969 40.46875 C 14.984375 40.21875 14.609375 39.882812 14.195312 39.457031 C 14.375 39.058594 14.519531 38.617188 14.820312 38.457031 C 18.808594 36.300781 22.816406 34.179688 26.824219 32.0625 C 27.035156 31.953125 27.304688 31.941406 27.660156 31.871094 C 27.964844 32.289062 28.15625 32.71875 28.363281 33.253906 Z M 28.363281 33.253906 "/>
<path style=" stroke:none;fill-rule:nonzero;fill:rgb(31.372549%,18.039216%,100%);fill-opacity:1;" d="M 19.023438 48.398438 C 20.582031 47.582031 22.121094 46.898438 23.648438 46.195312 C 25.351562 45.414062 27.042969 44.609375 28.859375 43.8125 C 28.765625 44.824219 28.554688 45.835938 28.199219 46.964844 C 25.859375 48.097656 23.671875 49.144531 21.453125 50.113281 C 20.589844 50.488281 19.644531 50.683594 18.738281 50.964844 C 18.828125 50.148438 18.914062 49.335938 19.023438 48.398438 Z M 19.023438 48.398438 "/>
<path style=" stroke:none;fill-rule:nonzero;fill:rgb(27.058824%,20%,100%);fill-opacity:1;" d="M 18.714844 51.074219 C 19.644531 50.683594 20.589844 50.488281 21.453125 50.113281 C 23.671875 49.144531 25.859375 48.097656 28.175781 47.078125 C 27.78125 48.144531 27.273438 49.210938 26.667969 50.324219 C 24.136719 51.5625 21.707031 52.773438 19.253906 53.933594 C 18.757812 54.171875 18.164062 54.207031 17.535156 54.269531 C 17.867188 53.195312 18.277344 52.1875 18.714844 51.074219 Z M 18.714844 51.074219 "/>
<path style=" stroke:none;fill-rule:nonzero;fill:rgb(62.745098%,7.843137%,100%);fill-opacity:1;" d="M 39.367188 23.265625 C 39.800781 23.78125 40.003906 24.578125 40.5 24.851562 C 44.730469 27.183594 49.011719 29.421875 53.285156 31.675781 C 53.5 31.789062 53.761719 31.808594 54.113281 31.878906 C 54.007812 32.261719 53.796875 32.636719 53.378906 33.042969 C 49.144531 30.972656 45.121094 28.851562 41.074219 26.777344 C 39.972656 26.214844 38.796875 25.796875 37.652344 25.3125 C 38.191406 24.644531 38.734375 23.972656 39.367188 23.265625 Z M 39.367188 23.265625 "/>
<path style=" stroke:none;fill-rule:nonzero;fill:rgb(61.176471%,8.235294%,100%);fill-opacity:1;" d="M 37.570312 25.34375 C 38.796875 25.796875 39.972656 26.214844 41.074219 26.777344 C 45.121094 28.851562 49.144531 30.972656 53.289062 33.082031 C 53.160156 33.460938 52.917969 33.828125 52.589844 34.242188 C 50.902344 33.496094 49.289062 32.730469 47.707031 31.910156 C 44.664062 30.328125 41.636719 28.726562 38.617188 27.105469 C 38.097656 26.828125 37.65625 26.417969 37.125 25.980469 C 37.210938 25.71875 37.351562 25.546875 37.570312 25.34375 Z M 37.570312 25.34375 "/>
<path style=" stroke:none;fill-rule:nonzero;fill:rgb(82.352941%,1.568627%,100%);fill-opacity:1;" d="M 15.09375 16.566406 C 11.46875 18.5625 7.828125 20.449219 4.078125 22.34375 C 3.953125 21.738281 3.941406 21.128906 3.949219 20.390625 C 5.757812 19.40625 7.5625 18.574219 9.335938 17.683594 C 10.757812 16.964844 12.132812 16.152344 13.554688 15.433594 C 13.820312 15.296875 14.210938 15.402344 14.632812 15.441406 C 14.839844 15.8125 14.960938 16.136719 15.09375 16.566406 Z M 15.09375 16.566406 "/>
<path style=" stroke:none;fill-rule:nonzero;fill:rgb(47.45098%,13.72549%,100%);fill-opacity:1;" d="M 47.367188 39.410156 C 47.351562 39.324219 47.398438 39.203125 47.519531 39.058594 C 47.539062 39.148438 47.484375 39.261719 47.367188 39.410156 Z M 47.367188 39.410156 "/>
<path style=" stroke:none;fill-rule:nonzero;fill:rgb(62.745098%,7.843137%,100%);fill-opacity:1;" d="M 39.984375 22.921875 C 39.9375 23.003906 39.796875 23.097656 39.570312 23.203125 C 39.621094 23.117188 39.757812 23.027344 39.984375 22.921875 Z M 39.984375 22.921875 "/>
<path style=" stroke:none;fill-rule:nonzero;fill:rgb(41.568627%,15.294118%,100%);fill-opacity:1;" d="M 44.289062 42.609375 C 44.21875 42.578125 44.21875 42.5 44.308594 42.386719 C 44.34375 42.417969 44.335938 42.492188 44.289062 42.609375 Z M 44.289062 42.609375 "/>
</g>
</svg>
