<?xml version="1.0" encoding="UTF-8"?>
<svg xmlns="http://www.w3.org/2000/svg" xmlns:xlink="http://www.w3.org/1999/xlink" width="80px" height="80px" viewBox="0 0 80 80" version="1.1">
<g id="surface1">
<path style=" stroke:none;fill-rule:evenodd;fill:rgb(100%,37.254902%,29.803922%);fill-opacity:1;" d="M -0.0859375 -0.0859375 C 26.578125 -0.0859375 53.246094 -0.0859375 79.914062 -0.0859375 C 79.914062 26.578125 79.914062 53.246094 79.914062 79.914062 C 53.246094 79.914062 26.578125 79.914062 -0.0859375 79.914062 C -0.0859375 53.246094 -0.0859375 26.578125 -0.0859375 -0.0859375 Z M -0.0859375 -0.0859375 "/>
<path style=" stroke:none;fill-rule:evenodd;fill:rgb(100%,98.431373%,98.039216%);fill-opacity:1;" d="M 58.347656 32.433594 C 58.925781 32.433594 59.507812 32.433594 60.085938 32.433594 C 60.117188 35.914062 60.085938 39.390625 60 42.871094 C 59.75 45.816406 58.15625 47.382812 55.21875 47.566406 C 54.382812 47.542969 53.570312 47.398438 52.78125 47.128906 C 51.777344 46.65625 51.660156 45.988281 52.433594 45.128906 C 56.234375 46.839844 58.175781 45.621094 58.261719 41.476562 C 58.347656 38.464844 58.375 35.449219 58.347656 32.433594 Z M 58.347656 32.433594 "/>
<path style=" stroke:none;fill-rule:evenodd;fill:rgb(100%,98.039216%,97.647059%);fill-opacity:1;" d="M 68.085938 32.433594 C 70.488281 32.035156 72.632812 32.585938 74.523438 34.085938 C 74.210938 34.507812 73.921875 34.941406 73.652344 35.390625 C 71.59375 33.890625 69.390625 33.628906 67.042969 34.609375 C 66.375 35.378906 66.171875 36.277344 66.433594 37.304688 C 66.515625 37.554688 66.660156 37.757812 66.871094 37.914062 C 68.910156 38.75 71 39.445312 73.128906 40 C 75.035156 41.078125 75.644531 42.675781 74.957031 44.78125 C 74.367188 46.007812 73.410156 46.792969 72.085938 47.128906 C 69.03125 47.917969 66.308594 47.308594 63.914062 45.304688 C 64.027344 44.722656 64.320312 44.257812 64.78125 43.914062 C 67.105469 45.734375 69.65625 46.140625 72.433594 45.128906 C 73.636719 43.941406 73.578125 42.808594 72.261719 41.738281 C 69.984375 40.960938 67.726562 40.148438 65.476562 39.304688 C 64.402344 37.992188 64.140625 36.511719 64.695312 34.871094 C 65.527344 33.601562 66.65625 32.792969 68.085938 32.433594 Z M 68.085938 32.433594 "/>
<path style=" stroke:none;fill-rule:evenodd;fill:rgb(100%,98.823529%,98.431373%);fill-opacity:1;" d="M 4.609375 32.433594 C 6.8125 32.40625 9.015625 32.433594 11.21875 32.523438 C 14.929688 33.484375 16.785156 35.890625 16.78125 39.738281 C 16.921875 43.730469 15.066406 46.191406 11.21875 47.128906 C 9.015625 47.21875 6.8125 47.246094 4.609375 47.21875 C 4.609375 43.507812 4.609375 39.796875 4.609375 36.085938 C 5.1875 36.085938 5.769531 36.085938 6.347656 36.085938 C 6.347656 39.273438 6.347656 42.464844 6.347656 45.652344 C 8.09375 45.703125 9.832031 45.617188 11.566406 45.390625 C 13.472656 44.523438 14.605469 43.046875 14.957031 40.957031 C 15.207031 39.0625 14.800781 37.320312 13.738281 35.738281 C 12.695312 34.738281 11.449219 34.1875 10 34.085938 C 8.203125 34 6.40625 33.972656 4.609375 34 C 4.609375 33.476562 4.609375 32.957031 4.609375 32.433594 Z M 4.609375 32.433594 "/>
<path style=" stroke:none;fill-rule:evenodd;fill:rgb(100%,98.039216%,97.647059%);fill-opacity:1;" d="M 24.957031 32.433594 C 25.480469 32.40625 26.003906 32.433594 26.523438 32.523438 C 24.59375 37.394531 22.738281 42.292969 20.957031 47.21875 C 20.320312 47.21875 19.679688 47.21875 19.042969 47.21875 C 20.964844 42.277344 22.933594 37.347656 24.957031 32.433594 Z M 24.957031 32.433594 "/>
<path style=" stroke:none;fill-rule:evenodd;fill:rgb(100%,97.647059%,97.254902%);fill-opacity:1;" d="M 33.128906 32.433594 C 33.816406 32.382812 34.480469 32.441406 35.128906 32.609375 C 36.085938 34.519531 37.128906 36.375 38.261719 38.175781 C 38.28125 38.890625 38.050781 39.527344 37.566406 40.085938 C 36.039062 37.554688 34.5625 35.003906 33.128906 32.433594 Z M 33.128906 32.433594 "/>
<path style=" stroke:none;fill-rule:evenodd;fill:rgb(100%,97.647059%,97.647059%);fill-opacity:1;" d="M 43.914062 32.433594 C 44.609375 32.40625 45.308594 32.433594 46 32.523438 C 44.238281 35.601562 42.414062 38.644531 40.523438 41.652344 C 40.433594 43.507812 40.40625 45.363281 40.433594 47.21875 C 39.796875 47.21875 39.160156 47.21875 38.523438 47.21875 C 38.492188 45.363281 38.523438 43.507812 38.609375 41.652344 C 40.472656 38.621094 42.238281 35.550781 43.914062 32.433594 Z M 43.914062 32.433594 "/>
<path style=" stroke:none;fill-rule:evenodd;fill:rgb(100%,98.039216%,98.039216%);fill-opacity:1;" d="M 27.390625 34.695312 C 29.207031 38.808594 30.886719 42.984375 32.433594 47.21875 C 31.796875 47.21875 31.160156 47.21875 30.523438 47.21875 C 30.070312 45.804688 29.546875 44.414062 28.957031 43.042969 C 27.394531 42.871094 25.832031 42.8125 24.261719 42.871094 C 24.375 42.40625 24.492188 41.941406 24.609375 41.476562 C 25.890625 41.535156 27.164062 41.476562 28.433594 41.304688 C 27.886719 39.722656 27.25 38.1875 26.523438 36.695312 C 26.742188 35.992188 27.03125 35.328125 27.390625 34.695312 Z M 27.390625 34.695312 "/>
<path style=" stroke:none;fill-rule:evenodd;fill:rgb(100%,99.215686%,98.823529%);fill-opacity:1;" d="M 48.78125 44.957031 C 48.78125 45.710938 48.78125 46.464844 48.78125 47.21875 C 48.320312 47.21875 47.855469 47.21875 47.390625 47.21875 C 47.390625 46.464844 47.390625 45.710938 47.390625 44.957031 C 47.855469 44.957031 48.320312 44.957031 48.78125 44.957031 Z M 48.78125 44.957031 "/>
<path style=" stroke:none;fill-rule:evenodd;fill:rgb(100%,60.784314%,56.078431%);fill-opacity:1;" d="M 48.78125 44.957031 C 48.953125 45.734375 49.011719 46.546875 48.957031 47.390625 C 48.398438 47.445312 47.875 47.386719 47.390625 47.21875 C 47.855469 47.21875 48.320312 47.21875 48.78125 47.21875 C 48.78125 46.464844 48.78125 45.710938 48.78125 44.957031 Z M 48.78125 44.957031 "/>
</g>
</svg>
