<?xml version="1.0" encoding="UTF-8"?>
<svg xmlns="http://www.w3.org/2000/svg" xmlns:xlink="http://www.w3.org/1999/xlink" width="80px" height="80px" viewBox="0 0 80 80" version="1.1">
<g id="surface1">
<path style=" stroke:none;fill-rule:nonzero;fill:rgb(87.058824%,29.803922%,21.176471%);fill-opacity:1;" d="M 78.492188 36.4375 L 43.5625 1.507812 C 41.550781 -0.503906 38.289062 -0.503906 36.277344 1.507812 L 29.023438 8.761719 L 38.226562 17.960938 C 40.363281 17.242188 42.816406 17.726562 44.519531 19.429688 C 46.230469 21.144531 46.710938 23.617188 45.972656 25.761719 L 54.839844 34.628906 C 56.984375 33.890625 59.460938 34.367188 61.175781 36.085938 C 63.570312 38.480469 63.570312 42.359375 61.175781 44.753906 C 58.777344 47.148438 54.898438 47.148438 52.503906 44.753906 C 50.703125 42.949219 50.257812 40.304688 51.167969 38.085938 L 42.898438 29.816406 L 42.898438 51.578125 C 43.496094 51.875 44.042969 52.265625 44.519531 52.738281 C 46.914062 55.132812 46.914062 59.011719 44.519531 61.410156 C 42.125 63.804688 38.242188 63.804688 35.851562 61.410156 C 33.457031 59.011719 33.457031 55.132812 35.851562 52.738281 C 36.425781 52.164062 37.105469 51.710938 37.855469 51.402344 L 37.855469 29.4375 C 37.105469 29.128906 36.421875 28.675781 35.851562 28.097656 C 34.035156 26.285156 33.601562 23.625 34.53125 21.398438 L 25.460938 12.324219 L 1.507812 36.273438 C -0.503906 38.289062 -0.503906 41.550781 1.507812 43.5625 L 36.4375 78.488281 C 38.449219 80.5 41.710938 80.5 43.726562 78.488281 L 78.492188 43.722656 C 80.503906 41.710938 80.503906 38.445312 78.492188 36.4375 "/>
</g>
</svg>
