<?xml version="1.0" standalone="no"?>
<!DOCTYPE svg PUBLIC "-//W3C//DTD SVG 20010904//EN"
 "http://www.w3.org/TR/2001/REC-SVG-20010904/DTD/svg10.dtd">
<svg version="1.0" xmlns="http://www.w3.org/2000/svg"
 width="100.000000pt" height="100.000000pt" viewBox="0 0 50.000000 50.000000"
 preserveAspectRatio="xMidYMid meet">

<g transform="translate(0.000000,50.000000) scale(0.100000,-0.100000)"
fill="#0ea5e9" stroke="none">
<path d="M86 464 c-31 -30 -9 -84 34 -84 24 0 50 26 50 50 0 24 -26 50 -50 50
-10 0 -26 -7 -34 -16z m59 -34 c0 -18 -6 -26 -23 -28 -13 -2 -25 3 -28 12 -10
26 4 48 28 44 17 -2 23 -10 23 -28z"/>
<path d="M290 470 c0 -5 -22 -10 -50 -10 -27 0 -50 -4 -50 -10 0 -6 52 -10
135 -10 l135 0 0 -130 0 -130 -130 0 c-80 0 -130 -4 -130 -10 0 -5 18 -10 40
-10 22 0 40 -2 40 -5 0 -3 -11 -28 -25 -55 -14 -28 -21 -50 -15 -50 6 0 20 20
32 45 12 25 25 45 28 45 3 0 16 -20 28 -45 12 -25 26 -45 32 -45 6 0 -1 22
-15 50 -14 27 -25 52 -25 55 0 3 36 5 80 5 l80 0 0 150 0 150 -85 0 c-50 0
-85 4 -85 10 0 6 -4 10 -10 10 -5 0 -10 -4 -10 -10z"/>
<path d="M37 352 c-13 -14 -17 -38 -17 -101 0 -74 2 -83 20 -88 17 -5 20 -14
20 -63 0 -65 9 -77 60 -77 58 0 60 6 60 153 l0 133 68 3 c64 3 67 4 67 28 0
25 -2 25 -87 28 -79 3 -87 1 -93 -18 -8 -26 -22 -26 -30 0 -8 25 -46 26 -68 2z
m63 -32 c16 -38 24 -38 40 0 12 30 14 30 86 30 43 0 74 -4 74 -10 0 -6 -30
-10 -70 -10 l-70 0 0 -145 c0 -122 -2 -145 -15 -145 -12 0 -15 14 -15 65 0 37
-4 65 -10 65 -6 0 -10 -28 -10 -65 0 -51 -3 -65 -15 -65 -13 0 -15 21 -15 130
0 80 -4 130 -10 130 -6 0 -10 -27 -10 -60 0 -33 -4 -60 -10 -60 -15 0 -13 143
2 158 20 20 35 14 48 -18z"/>
</g>
</svg>
